<svg xmlns="http://www.w3.org/2000/svg" xmlns:xlink="http://www.w3.org/1999/xlink" width="500" zoomAndPan="magnify" viewBox="0 0 375 374.999991" height="500" preserveAspectRatio="xMidYMid meet" version="1.0"><defs><g/><clipPath id="5a91b457f7"><path d="M 50 61 L 317 61 L 317 324.710938 L 50 324.710938 Z M 50 61 " clip-rule="nonzero"/></clipPath><clipPath id="bc6fa464e6"><path d="M 317 217 L 325.519531 217 L 325.519531 252 L 317 252 Z M 317 217 " clip-rule="nonzero"/></clipPath><clipPath id="fd9482519b"><path d="M 198 50.210938 L 202 50.210938 L 202 51 L 198 51 Z M 198 50.210938 " clip-rule="nonzero"/></clipPath></defs><g clip-path="url(#5a91b457f7)"><path fill="#ffffff" d="M 57.15625 225.292969 L 57.054688 225.382812 L 57.394531 226.496094 Z M 316.519531 174.507812 C 316.492188 175.703125 316.183594 175.746094 315.832031 174.261719 C 315.335938 172.167969 314.792969 170.03125 314.351562 167.582031 C 313.253906 162.960938 311.796875 158.226562 310.554688 153.480469 C 306.210938 140.46875 299.984375 128.148438 292.1875 116.820312 L 286.273438 108.910156 L 279.589844 101.628906 C 277.832031 99.546875 275.703125 97.824219 273.703125 96.113281 C 271.574219 94.292969 269.636719 92.691406 268.082031 91.519531 C 266.460938 90.429688 265.167969 89.847656 264.558594 89.777344 C 263.691406 89.707031 261.488281 88.382812 258.214844 86.0625 C 248.449219 79.976562 238.300781 74.488281 226.898438 70.773438 L 222.417969 69.1875 L 217.804688 68.101562 C 216.464844 67.789062 215.085938 67.710938 215.742188 67.992188 C 216.28125 68.226562 217.003906 68.515625 217.859375 68.769531 C 219.265625 69.171875 220.832031 69.617188 222.335938 70.046875 C 233.46875 73.890625 244.113281 78.738281 253.664062 85.316406 C 258.039062 88.210938 262.128906 91.585938 266.257812 94.875 C 269.347656 97.824219 272.527344 100.539062 275.027344 103.421875 C 276.789062 105.644531 278.988281 108.042969 281.113281 110.410156 C 284.210938 113.984375 286.769531 117.980469 289.640625 121.71875 C 291.972656 125.816406 294.59375 129.75 296.699219 133.957031 C 296.835938 134.257812 296.96875 134.699219 296.945312 134.761719 C 296.921875 134.828125 296.703125 134.59375 296.59375 134.371094 C 294.742188 130.660156 292.199219 127.296875 290.164062 123.703125 C 285.757812 117.082031 280.847656 110.992188 275.34375 105.441406 C 274.296875 104.289062 273.21875 103.109375 272.023438 102.101562 C 262.449219 92.351562 250.933594 84.65625 238.753906 78.585938 C 235.925781 77.21875 233.128906 75.652344 230.246094 74.667969 C 219.878906 69.953125 208.410156 67.625 196.867188 66.011719 C 184.730469 65.191406 172.425781 65.140625 160.46875 67.550781 C 140.601562 70.914062 121.953125 79.828125 105.96875 91.902344 C 95.097656 100.257812 85.484375 110.296875 77.5625 121.539062 C 69.535156 133.28125 63.515625 146.480469 59.753906 160.242188 C 59.105469 162.804688 58.328125 165.332031 57.738281 167.902344 L 56.445312 175.699219 C 54.421875 190.394531 54.808594 205.484375 57.734375 220.074219 C 58.40625 222.636719 59.089844 225.226562 59.757812 227.773438 C 63.25 239.445312 67.867188 250.789062 74.417969 261.148438 C 76.15625 264.398438 78.371094 267.390625 80.65625 270.347656 L 84.007812 274.84375 L 87.761719 279.003906 C 90.273438 281.753906 92.675781 284.609375 95.539062 287.003906 L 97.316406 288.792969 C 96.707031 288.320312 96.140625 287.886719 95.472656 287.367188 C 94.378906 286.472656 93.222656 285.519531 92.089844 284.59375 L 92.375 284.828125 C 89.691406 282.167969 87.015625 279.308594 84.28125 276.445312 C 81.703125 273.445312 79.386719 270.167969 76.910156 267.0625 C 76.007812 265.996094 75.273438 264.980469 74.5625 263.980469 C 74.433594 263.808594 74.40625 263.941406 74.488281 264.15625 C 74.578125 264.394531 74.824219 264.890625 75.054688 265.277344 C 77.445312 268.839844 80.132812 272.21875 82.621094 275.714844 C 85.828125 279.382812 89.003906 282.984375 92.476562 286.332031 C 101.046875 294.332031 110.632812 301.15625 120.878906 306.804688 C 127.09375 309.8125 133.25 312.945312 139.582031 314.644531 C 142.257812 315.464844 145.449219 316.792969 148.570312 317.414062 L 156.332031 319.371094 C 158.917969 320.023438 161.601562 320.203125 164.230469 320.65625 C 169.484375 321.675781 174.828125 321.800781 180.164062 322.0625 C 192.921875 322.226562 205.863281 321.25 218.128906 317.660156 C 222.0625 316.890625 225.738281 315.367188 229.507812 314.078125 C 233.328125 312.90625 236.914062 311.121094 240.527344 309.300781 C 242.386719 308.320312 244.457031 307.523438 246.253906 306.453125 C 256.480469 300.882812 266.027344 293.773438 274.566406 285.714844 C 284.542969 275.96875 292.917969 264.925781 299.5625 252.925781 C 302.109375 247.988281 304.707031 243.238281 306.527344 238.203125 C 308.773438 233.324219 310.226562 228.238281 311.734375 223.105469 C 313.285156 218.699219 313.695312 214.773438 314.71875 212.199219 C 315.625 209.5 316.222656 208.730469 316.214844 212.054688 C 316.214844 213.324219 316.199219 214.6875 316.300781 215.464844 C 316.476562 217.03125 316.527344 218.808594 316.183594 221.039062 C 315.714844 223.246094 314.972656 225.929688 313.929688 229.378906 C 313.136719 232.425781 311.988281 235.382812 310.738281 238.355469 C 309.464844 241.3125 308.539062 244.460938 306.996094 247.429688 C 306 249.382812 305.011719 251.304688 304.03125 253.21875 C 302.207031 256.757812 301.347656 257.753906 302.066406 255.5 C 302.476562 254.246094 302.960938 252.769531 303.355469 251.566406 C 303.648438 250.609375 302.9375 251.203125 302.167969 252.585938 C 300.871094 255.117188 299.320312 257.503906 297.601562 260.042969 C 291.675781 270.382812 283.683594 279.453125 275.246094 287.804688 C 274.046875 288.886719 272.792969 290.019531 271.613281 291.085938 C 260.785156 301.128906 248.203125 308.800781 234.765625 314.464844 C 217.714844 321.421875 199.242188 324.730469 180.757812 324.347656 L 170.996094 323.863281 C 155.320312 322.242188 139.996094 317.816406 125.902344 310.859375 C 120.648438 308.625 115.964844 305.285156 111.03125 302.433594 C 108.652344 300.871094 106.441406 299.0625 104.132812 297.40625 C 101.824219 295.75 99.535156 294.078125 97.496094 292.121094 C 85.546875 282.003906 75.488281 269.511719 67.753906 255.933594 C 61.25 244.136719 56.652344 231.402344 53.457031 218.90625 C 52.664062 213.921875 51.179688 208.582031 50.96875 203.261719 C 50.804688 201.140625 50.628906 198.820312 50.476562 196.878906 C 49.792969 188.246094 50.332031 178.800781 51.820312 169.636719 C 52.148438 165.800781 53.339844 162.148438 54.140625 158.40625 C 54.890625 154.640625 56.074219 150.996094 57.441406 147.378906 C 60.8125 136.839844 66.359375 127.03125 72.40625 117.820312 C 79.597656 108.117188 87.621094 99.136719 96.949219 91.566406 C 101.148438 88.109375 105.6875 85.03125 110.175781 81.914062 C 121.390625 74.558594 133.273438 69.875 145.550781 66.234375 C 148.679688 65.539062 151.75 64.855469 154.738281 64.191406 C 168.507812 61.828125 183.140625 61.101562 197.761719 62.636719 C 199.894531 62.964844 202.105469 63.300781 204.191406 63.621094 L 209.796875 64.375 C 211.648438 64.753906 213.472656 65.261719 215.3125 65.703125 C 218.972656 66.667969 222.738281 67.363281 226.269531 68.851562 C 228.828125 69.789062 231.300781 70.386719 231.441406 70.152344 C 231.589844 69.898438 229.820312 68.957031 227.507812 68.007812 C 223.625 66.199219 219.320312 65.304688 215.058594 64.191406 C 212.984375 63.730469 210.960938 62.898438 208.875 62.636719 C 207.007812 62.304688 206.078125 61.753906 207.570312 61.851562 C 209.265625 61.941406 211.121094 62.097656 212.980469 62.542969 C 213.886719 62.722656 215.125 63.019531 216.132812 63.296875 C 218.699219 63.988281 221.246094 64.671875 223.78125 65.351562 L 231.160156 68.007812 C 236.167969 69.523438 240.746094 72.003906 245.519531 74.113281 C 249.953125 76.167969 254.121094 79.140625 258.425781 81.636719 L 269.03125 89.648438 C 272.714844 93.125 276.425781 96.261719 279.550781 99.816406 C 281.566406 102.175781 283.640625 104.605469 285.746094 107.074219 C 287.871094 109.519531 289.625 112.332031 291.625 114.957031 C 294.035156 117.992188 295.960938 121.386719 298 124.484375 C 301.253906 128.964844 303.308594 133.777344 305.382812 138.648438 C 307.21875 142.574219 308.277344 146.410156 310.09375 150.25 C 311.472656 153.070312 312.324219 156.195312 313.292969 159.335938 C 314.175781 162.496094 315.445312 165.625 315.925781 168.875 C 316.261719 170.546875 316.542969 173.253906 316.519531 174.507812 " fill-opacity="1" fill-rule="nonzero"/></g><path fill="#ffffff" d="M 252.261719 61.277344 C 257.695312 64.128906 262.230469 67.503906 266.113281 70.226562 C 269.429688 73.09375 273.703125 76.34375 278.21875 79.78125 C 281.113281 82.316406 283.472656 84.542969 285.496094 86.738281 C 287.359375 88.617188 289.113281 90.898438 291.109375 93.359375 C 294.542969 97.535156 295.953125 99.667969 296.175781 100.789062 C 296.230469 101.117188 296.792969 102.132812 297.40625 103.148438 C 297.703125 103.636719 298.675781 104.886719 299.339844 105.753906 C 299.621094 106.121094 300.054688 106.597656 300.160156 106.667969 C 301.253906 107.5 303.578125 109.460938 306.625 114.699219 C 309.429688 119.398438 312.347656 123.835938 314.246094 128.660156 C 315.75 132.335938 317.644531 135.78125 318.726562 139.625 C 319.800781 142.847656 320.882812 146.097656 321.984375 149.402344 C 322.507812 151.011719 322.882812 152.871094 323.371094 154.535156 C 323.625 155.472656 324.027344 156.675781 324.195312 156.984375 C 324.355469 157.292969 324.449219 156.957031 324.324219 156.304688 C 323.820312 153.910156 323.476562 151.292969 322.652344 148.667969 C 320.804688 143.429688 319.445312 137.726562 317.03125 132.683594 C 314.738281 127.265625 312.414062 121.871094 309.375 116.832031 C 306.703125 111.570312 303.304688 106.769531 299.898438 101.898438 C 298.082031 99.03125 295.582031 96.40625 293.308594 93.714844 C 291.566406 91.738281 289.914062 89.671875 288.089844 87.769531 L 282.359375 82.265625 C 279.847656 79.75 277.191406 77.386719 274.320312 75.269531 C 271.488281 73.117188 268.785156 70.757812 265.820312 68.777344 L 265.679688 68.75 C 260.507812 65.609375 255.589844 62.003906 250.027344 59.5 C 248.425781 58.722656 246.773438 57.917969 245.140625 57.128906 C 244.722656 56.925781 243.902344 56.601562 243.921875 56.636719 C 243.984375 56.78125 244.011719 56.976562 244.582031 57.28125 C 247.046875 58.566406 249.628906 59.90625 252.261719 61.277344 " fill-opacity="1" fill-rule="nonzero"/><g clip-path="url(#bc6fa464e6)"><path fill="#ffffff" d="M 324.144531 220.074219 C 323.132812 224.839844 321.449219 229.46875 320.132812 234.25 C 319.773438 235.773438 319.027344 237.539062 318.476562 239.183594 C 317.519531 241.847656 316.910156 244.3125 317.140625 244.527344 C 317.375 244.75 318.382812 242.921875 319.332031 240.503906 C 319.730469 239.445312 320.148438 238.324219 320.5625 237.230469 C 320.746094 236.671875 320.988281 236.121094 321.113281 235.550781 C 322.265625 231.226562 322.917969 229.828125 322.761719 231.921875 C 322.574219 233.671875 322.464844 235.96875 321.535156 238.800781 C 320.285156 243.113281 319.378906 246.671875 318.910156 249.285156 C 318.546875 251.332031 318.296875 252.449219 319.402344 251.171875 C 319.8125 250.734375 320.46875 249.195312 321.039062 247.824219 C 321.585938 246.457031 322.261719 244.433594 322.652344 243.113281 C 323.414062 240.550781 323.550781 239.375 323.4375 238.828125 C 323.269531 238.171875 323.347656 237.425781 323.832031 234.398438 C 325.203125 226.171875 325.316406 223.15625 325.039062 218.226562 C 325.019531 217.183594 324.488281 218.304688 324.144531 220.074219 " fill-opacity="1" fill-rule="nonzero"/></g><path fill="#ffffff" d="M 304.132812 258.757812 C 302.402344 261.988281 301.871094 263.59375 300.792969 265.941406 C 299.855469 267.820312 298.753906 270.214844 296.933594 272.226562 C 296.109375 273.25 295.453125 274.0625 294.773438 274.90625 C 294.46875 275.3125 294.046875 275.878906 293.800781 276.207031 C 293.296875 276.96875 292.554688 278.066406 292.503906 278.277344 C 292.054688 280.035156 295.398438 277.148438 299.230469 272.390625 C 300.050781 271.5 301.035156 269.449219 301.496094 268.582031 C 301.964844 267.59375 301.925781 267.285156 302.054688 266.761719 C 302.28125 265.820312 303.039062 264.179688 304.460938 261.648438 C 305.875 259.375 306.832031 256.804688 307.875 254.460938 C 308.238281 253.617188 308.515625 252.773438 308.566406 252.4375 C 308.777344 251.082031 308.273438 251.226562 306.902344 253.261719 C 306.273438 254.171875 304.84375 257.128906 304.132812 258.757812 " fill-opacity="1" fill-rule="nonzero"/><path fill="#ffffff" d="M 280.914062 291.292969 C 275.8125 296.242188 273.277344 299.332031 272.171875 301.191406 C 272.082031 301.375 273.203125 300.65625 273.519531 300.335938 C 276.402344 297.628906 279.242188 294.960938 282.128906 292.253906 C 285.050781 289.070312 285.679688 287.859375 286.015625 287 C 286.007812 286.828125 286.039062 286.625 285.980469 286.515625 C 285.769531 286.125 283.371094 288.542969 280.914062 291.292969 " fill-opacity="1" fill-rule="nonzero"/><path fill="#ffffff" d="M 321.757812 219.691406 C 321.644531 219.34375 321.539062 218.84375 321.335938 219.167969 C 320.6875 220.375 319.480469 223.320312 317.980469 227.523438 C 317.734375 228.230469 317.324219 229.6875 317.148438 230.507812 C 316.890625 231.90625 316.683594 233.050781 316.503906 234.039062 C 316.621094 234.222656 316.636719 234.640625 316.796875 234.433594 C 317.761719 233.183594 319.074219 230.140625 320.75 225.179688 C 321.351562 223.59375 321.992188 220.167969 321.757812 219.691406 " fill-opacity="1" fill-rule="nonzero"/><path fill="#ffffff" d="M 323.445312 204.1875 C 323.53125 202.113281 323.671875 198.6875 323.816406 195.273438 C 323.875 193.824219 323.652344 192.773438 323.488281 193.488281 C 322.789062 196.519531 322.300781 201.636719 321.847656 207.148438 C 321.34375 210.234375 321.113281 213.949219 321.566406 213.363281 C 321.9375 212.648438 323.265625 209.4375 323.445312 204.1875 " fill-opacity="1" fill-rule="nonzero"/><path fill="#ffffff" d="M 298.570312 266.921875 C 298.746094 266.515625 298.496094 266.585938 298.171875 267.023438 C 297.472656 267.90625 296.714844 269.265625 295.574219 270.511719 C 294.101562 272.507812 292.503906 274.667969 290.953125 276.769531 C 290.46875 277.441406 289.960938 278.320312 289.871094 278.589844 C 289.78125 278.863281 290.039062 278.753906 290.441406 278.339844 C 292.828125 275.671875 297.460938 270.175781 298.570312 266.921875 " fill-opacity="1" fill-rule="nonzero"/><path fill="#ffffff" d="M 82.242188 82.332031 C 84.953125 80.023438 87.515625 77.496094 90.273438 75.394531 C 90.59375 75.125 90.800781 74.875 90.75 74.855469 C 90.691406 74.835938 90.324219 75.023438 89.960938 75.277344 C 85.984375 77.921875 82.746094 81.515625 79.214844 84.683594 C 78.902344 84.980469 78.71875 85.242188 78.476562 85.511719 C 78.84375 85.222656 79.171875 84.964844 79.589844 84.632812 C 80.449219 83.890625 81.355469 83.101562 82.242188 82.332031 " fill-opacity="1" fill-rule="nonzero"/><path fill="#ffffff" d="M 310.4375 137.601562 C 310.445312 137.71875 310.667969 138.253906 310.882812 138.839844 C 311.480469 140.082031 311.960938 141.636719 312.554688 143.105469 C 312.703125 143.484375 312.9375 143.949219 313.019531 144.039062 C 313.246094 144.292969 313.101562 143.625 312.628906 142.351562 C 312.046875 140.863281 311.554688 139.339844 310.773438 137.984375 C 310.644531 137.726562 310.429688 137.492188 310.4375 137.601562 " fill-opacity="1" fill-rule="nonzero"/><path fill="#ffffff" d="M 305.402344 273.960938 C 305.226562 274.46875 305.46875 274.273438 306.097656 273.257812 C 306.429688 272.722656 306.769531 271.984375 307 271.476562 C 307.070312 271.328125 306.832031 271.5625 306.636719 271.832031 C 306.074219 272.601562 305.636719 273.363281 305.402344 273.960938 " fill-opacity="1" fill-rule="nonzero"/><path fill="#ffffff" d="M 317.746094 164.902344 C 317.703125 164.570312 317.707031 164.320312 317.617188 163.894531 C 317.417969 162.960938 317.1875 161.824219 316.945312 160.976562 C 316.617188 159.832031 316.4375 159.644531 316.53125 160.4375 C 316.675781 161.625 317.113281 163.476562 317.503906 164.5625 C 317.609375 164.855469 317.667969 164.796875 317.746094 164.902344 " fill-opacity="1" fill-rule="nonzero"/><path fill="#ffffff" d="M 318.222656 207.40625 C 318.167969 206.910156 317.992188 207.464844 317.785156 208.832031 C 317.722656 209.222656 317.730469 209.617188 317.707031 210.011719 C 317.785156 210.425781 317.941406 209.941406 318.152344 208.566406 C 318.210938 208.171875 318.242188 207.574219 318.222656 207.40625 " fill-opacity="1" fill-rule="nonzero"/><g clip-path="url(#fd9482519b)"><path fill="#ffffff" d="M 201.351562 50.84375 C 201.820312 50.785156 201.242188 50.609375 199.894531 50.386719 C 199.433594 50.3125 198.582031 50.214844 198.46875 50.230469 C 198.03125 50.289062 198.613281 50.460938 199.917969 50.691406 C 200.414062 50.742188 201.226562 50.855469 201.351562 50.84375 " fill-opacity="1" fill-rule="nonzero"/></g><path fill="#ffffff" d="M 58.417969 108.824219 L 58.089844 109.082031 C 57.621094 109.894531 57.148438 110.714844 56.699219 111.5 C 56.671875 111.550781 56.898438 111.34375 57.007812 111.253906 L 58.417969 108.824219 " fill-opacity="1" fill-rule="nonzero"/><path fill="#ffffff" d="M 307 264.980469 C 306.964844 264.953125 306.726562 265.199219 306.519531 265.515625 C 305.8125 266.570312 305.464844 267.25 305.515625 267.421875 C 305.679688 267.25 305.808594 267.179688 306.011719 266.871094 C 306.722656 265.808594 307.109375 265.066406 307 264.980469 " fill-opacity="1" fill-rule="nonzero"/><path fill="#ffffff" d="M 313.566406 192.328125 C 313.542969 192.058594 313.464844 191.664062 313.4375 191.710938 C 313.410156 191.753906 313.417969 192.273438 313.410156 192.585938 L 313.550781 193.257812 C 313.554688 192.945312 313.5625 192.597656 313.566406 192.328125 " fill-opacity="1" fill-rule="nonzero"/><path fill="#ffffff" d="M 314.410156 135.109375 C 314.542969 135.375 314.695312 135.554688 314.839844 135.773438 C 314.703125 135.4375 314.550781 135.0625 314.433594 134.765625 C 314.296875 134.488281 314.144531 134.3125 314 134.09375 C 314.136719 134.4375 314.289062 134.804688 314.410156 135.109375 " fill-opacity="1" fill-rule="nonzero"/><path fill="#ffffff" d="M 309.277344 172.546875 C 309.316406 172.933594 309.367188 173.382812 309.394531 173.683594 C 309.460938 174.042969 309.589844 174.503906 309.632812 174.519531 C 309.792969 174.589844 309.730469 173.933594 309.472656 172.90625 C 309.40625 172.628906 309.34375 172.660156 309.277344 172.546875 " fill-opacity="1" fill-rule="nonzero"/><path fill="#ffffff" d="M 293.792969 269.34375 L 294.382812 268.742188 L 294.539062 268.3125 Z M 293.792969 269.34375 " fill-opacity="1" fill-rule="nonzero"/><path fill="#ffffff" d="M 302.765625 112.539062 L 302.027344 111.507812 L 302.210938 111.929688 Z M 302.765625 112.539062 " fill-opacity="1" fill-rule="nonzero"/><path fill="#ffffff" d="M 117 303.507812 L 116.378906 303.203125 L 117.324219 303.800781 Z M 117 303.507812 " fill-opacity="1" fill-rule="nonzero"/><g fill="#ffffff" fill-opacity="1"><g transform="translate(100.783024, 219.38688)"><g><path d="M 19.613281 -32.402344 C 20.082031 -33.339844 20.886719 -35.011719 21.488281 -36.148438 C 22.09375 -37.222656 22.828125 -38.761719 23.164062 -39.496094 C 23.496094 -40.300781 24.035156 -41.238281 24.300781 -41.574219 C 24.570312 -41.972656 24.835938 -42.375 24.835938 -42.511719 C 24.835938 -42.710938 26.644531 -45.925781 26.710938 -45.925781 C 26.84375 -45.925781 26.578125 -45.121094 26.375 -44.851562 C 26.242188 -44.652344 26.242188 -44.519531 26.375 -44.519531 C 26.710938 -44.519531 27.847656 -46.863281 27.714844 -47.261719 C 27.582031 -47.597656 28.921875 -50.074219 30.726562 -52.820312 C 31.398438 -53.890625 32.132812 -55.097656 32.265625 -55.496094 C 32.402344 -55.964844 32.734375 -56.5 33.003906 -56.835938 C 33.273438 -57.171875 33.472656 -57.574219 33.472656 -57.707031 C 33.472656 -57.90625 33.605469 -58.042969 33.671875 -58.109375 C 33.941406 -58.175781 35.75 -60.785156 35.75 -61.054688 C 35.75 -61.1875 36.015625 -61.589844 36.351562 -61.992188 C 36.6875 -62.394531 36.886719 -62.929688 36.886719 -63.261719 C 36.886719 -63.664062 37.019531 -63.796875 37.222656 -63.664062 C 37.421875 -63.597656 37.757812 -63.933594 38.226562 -64.667969 C 38.628906 -65.269531 38.960938 -65.875 38.960938 -65.941406 C 38.960938 -66.277344 39.832031 -67.679688 40.101562 -67.679688 C 40.367188 -67.679688 41.839844 -69.554688 43.378906 -71.765625 C 44.183594 -72.96875 47.464844 -76.652344 49.136719 -78.257812 C 49.808594 -78.929688 51.011719 -79.867188 51.75 -80.46875 C 53.289062 -81.539062 53.355469 -81.539062 53.757812 -79.933594 C 54.023438 -78.792969 54.292969 -73.574219 54.089844 -73.238281 C 54.023438 -73.105469 53.824219 -71.765625 53.621094 -70.160156 C 53.421875 -68.550781 53.222656 -67.078125 53.15625 -66.878906 C 53.085938 -66.675781 53.15625 -66.476562 53.289062 -66.476562 C 53.421875 -66.476562 53.488281 -66.675781 53.488281 -66.878906 C 53.488281 -67.144531 53.554688 -67.210938 53.621094 -67.144531 C 53.691406 -67.078125 53.621094 -66.207031 53.421875 -65.203125 C 53.222656 -64.199219 52.953125 -62.324219 52.6875 -60.921875 C 52.21875 -57.972656 51.480469 -54.828125 50.746094 -52.886719 C 50.074219 -50.945312 48.9375 -47.398438 48.535156 -45.789062 C 48.132812 -43.847656 47.261719 -40.835938 46.996094 -40.367188 C 46.792969 -39.964844 46.460938 -38.359375 45.320312 -33.539062 C 44.382812 -29.589844 44.316406 -26.109375 45.121094 -22.558594 C 45.390625 -21.222656 45.925781 -19.480469 46.324219 -18.675781 C 47.0625 -16.9375 48.335938 -15.195312 48.871094 -15.195312 C 49.070312 -15.195312 49.273438 -15.0625 49.339844 -14.929688 C 49.539062 -14.328125 52.351562 -13.1875 53.890625 -13.054688 C 55.5625 -12.921875 56.433594 -13.1875 57.171875 -14.125 C 57.4375 -14.460938 57.839844 -14.726562 57.972656 -14.726562 C 58.175781 -14.726562 59.648438 -15.933594 60.652344 -16.804688 C 61.121094 -17.203125 61.65625 -18.609375 61.523438 -18.8125 C 61.457031 -18.878906 61.457031 -19.078125 61.65625 -19.28125 C 61.992188 -19.816406 61.722656 -19.816406 60.25 -19.414062 C 59.378906 -19.214844 58.375 -18.675781 57.4375 -18.074219 C 55.230469 -16.535156 53.824219 -15.933594 52.550781 -15.933594 L 51.480469 -15.933594 L 50.8125 -17.40625 C 50.140625 -19.011719 49.941406 -20.6875 50.277344 -20.953125 C 50.410156 -21.019531 50.476562 -21.289062 50.410156 -21.554688 C 50.277344 -21.890625 50.207031 -21.890625 50.074219 -21.625 C 49.875 -21.222656 49.605469 -25.238281 49.738281 -26.511719 C 49.941406 -27.515625 50.945312 -32.871094 51.28125 -34.207031 C 51.414062 -34.675781 51.75 -36.285156 52.015625 -37.757812 C 52.285156 -39.296875 52.6875 -41.105469 52.886719 -41.90625 C 54.160156 -46.59375 54.292969 -47.261719 53.890625 -47.261719 C 53.757812 -47.261719 53.691406 -47.195312 53.691406 -47.0625 C 53.691406 -46.929688 53.621094 -46.792969 53.488281 -46.792969 C 53.355469 -46.792969 53.355469 -46.996094 53.488281 -47.261719 C 53.621094 -47.53125 53.890625 -47.730469 54.089844 -47.730469 C 54.492188 -47.730469 54.828125 -48.667969 54.628906 -49.40625 C 54.492188 -49.671875 54.558594 -49.808594 54.695312 -49.671875 C 54.828125 -49.605469 54.894531 -49.605469 54.894531 -49.738281 C 54.960938 -51.28125 55.429688 -54.628906 56.03125 -56.902344 C 56.5 -58.84375 56.636719 -59.78125 56.5 -59.984375 C 56.367188 -60.183594 56.433594 -60.316406 56.636719 -60.382812 C 56.902344 -60.519531 57.640625 -64.871094 58.042969 -68.617188 C 58.109375 -69.019531 58.242188 -70.226562 58.375 -71.363281 C 58.511719 -72.367188 58.644531 -74.175781 58.644531 -75.3125 C 58.578125 -77.1875 58.511719 -77.589844 57.90625 -79.128906 C 57.105469 -81.003906 55.964844 -82.542969 55.363281 -82.542969 C 55.164062 -82.542969 54.695312 -82.8125 54.359375 -83.078125 C 53.824219 -83.546875 53.289062 -83.679688 52.21875 -83.816406 C 50.878906 -83.949219 50.609375 -83.882812 49.539062 -83.347656 C 48.9375 -83.011719 47.933594 -82.410156 47.464844 -82.007812 C 46.929688 -81.539062 46.324219 -81.136719 46.058594 -81.070312 C 45.789062 -81.003906 45.589844 -80.800781 45.589844 -80.734375 C 45.589844 -80.601562 45.390625 -80.46875 45.1875 -80.335938 C 44.050781 -79.933594 36.351562 -70.558594 34.410156 -67.28125 C 34.277344 -67.078125 34.007812 -66.675781 33.808594 -66.410156 C 32.734375 -65.136719 32.265625 -64.402344 32.46875 -64.132812 C 32.804688 -63.796875 32.734375 -63.53125 32.265625 -63.53125 C 31.730469 -63.53125 28.117188 -57.707031 21.691406 -46.257812 C 21.019531 -45.054688 19.949219 -43.113281 19.347656 -42.042969 C 18.140625 -39.964844 15.867188 -35.347656 15.53125 -34.410156 C 15.464844 -34.140625 14.863281 -33.003906 14.191406 -32 C 13.589844 -30.996094 12.921875 -29.65625 12.71875 -29.121094 C 12.519531 -28.585938 12.25 -27.847656 12.050781 -27.515625 C 11.648438 -26.910156 10.445312 -24.035156 9.574219 -21.625 C 9.238281 -20.820312 8.835938 -19.683594 8.570312 -19.078125 C 7.164062 -15.597656 6.226562 -12.851562 6.359375 -12.585938 C 6.425781 -12.453125 6.425781 -12.453125 6.292969 -12.519531 C 6.226562 -12.585938 5.890625 -12.183594 5.625 -11.515625 C 5.355469 -10.84375 5.222656 -10.511719 5.289062 -10.84375 C 5.289062 -11.179688 5.488281 -12.386719 5.691406 -13.589844 C 5.890625 -14.792969 6.292969 -16.734375 6.5625 -17.941406 C 6.894531 -19.613281 6.960938 -20.152344 6.761719 -20.285156 C 6.5625 -20.417969 6.628906 -20.484375 6.828125 -20.484375 C 7.027344 -20.484375 7.230469 -20.550781 7.164062 -20.6875 C 7.164062 -20.753906 7.296875 -21.554688 7.566406 -22.425781 C 7.832031 -23.296875 8.433594 -25.707031 8.902344 -27.714844 C 9.976562 -31.730469 10.710938 -34.207031 11.917969 -37.890625 C 12.386719 -39.230469 12.785156 -40.636719 12.851562 -40.96875 C 12.988281 -41.371094 13.121094 -41.839844 13.1875 -42.109375 C 13.320312 -42.441406 13.253906 -42.511719 12.851562 -42.375 C 12.453125 -42.175781 12.386719 -42.242188 12.652344 -42.511719 C 12.785156 -42.710938 13.054688 -42.84375 13.253906 -42.777344 C 13.457031 -42.710938 13.65625 -42.980469 13.925781 -43.515625 C 14.125 -43.914062 14.257812 -44.453125 14.257812 -44.519531 C 14.257812 -44.652344 14.59375 -45.457031 14.996094 -46.324219 C 15.464844 -47.53125 15.597656 -48 15.464844 -48.199219 C 15.261719 -48.402344 15.261719 -48.402344 15.53125 -48.265625 C 15.800781 -48.199219 15.867188 -48.265625 15.867188 -48.804688 C 15.867188 -49.605469 18.074219 -54.695312 18.34375 -54.492188 C 18.609375 -54.292969 18.945312 -55.164062 18.8125 -55.699219 C 18.746094 -55.964844 18.746094 -56.03125 18.945312 -55.898438 C 19.078125 -55.832031 19.214844 -55.898438 19.28125 -56.101562 C 19.347656 -56.367188 19.347656 -56.570312 19.144531 -56.636719 C 18.878906 -56.703125 18.878906 -57.039062 19.214844 -57.371094 C 19.347656 -57.574219 19.882812 -58.511719 20.351562 -59.445312 C 20.820312 -60.453125 21.289062 -61.320312 21.355469 -61.386719 C 21.488281 -61.457031 21.554688 -61.722656 21.554688 -62.058594 C 21.554688 -62.394531 21.691406 -62.660156 21.757812 -62.660156 C 21.890625 -62.660156 22.160156 -62.929688 22.359375 -63.398438 C 22.628906 -63.796875 22.828125 -64.066406 22.960938 -64.066406 C 23.164062 -63.933594 24.234375 -66.34375 23.964844 -66.476562 C 23.699219 -66.746094 25.707031 -70.558594 26.042969 -70.492188 C 26.175781 -70.425781 26.777344 -71.296875 27.3125 -72.433594 C 27.847656 -73.503906 28.988281 -75.648438 29.789062 -77.121094 L 31.332031 -79.867188 L 31.332031 -81.605469 C 31.398438 -83.949219 31.0625 -84.617188 29.789062 -84.617188 C 28.652344 -84.617188 28.25 -84.820312 28.382812 -85.222656 C 28.453125 -85.421875 28.316406 -85.554688 27.917969 -85.621094 C 27.582031 -85.757812 27.179688 -85.824219 26.980469 -85.890625 C 26.441406 -86.023438 25.304688 -85.019531 25.105469 -84.21875 C 25.039062 -83.882812 24.902344 -83.679688 24.769531 -83.75 C 24.433594 -83.882812 22.628906 -81.339844 18.746094 -75.582031 C 16.535156 -72.234375 16 -71.363281 15.261719 -69.957031 C 14.59375 -68.617188 14.191406 -66.8125 14.527344 -66.542969 C 14.726562 -66.410156 16.9375 -68.953125 16.9375 -69.289062 C 16.9375 -69.421875 17.136719 -69.824219 17.40625 -70.292969 C 17.808594 -70.960938 17.941406 -71.027344 18.007812 -70.695312 C 18.074219 -70.425781 18.007812 -69.890625 17.808594 -69.421875 C 17.472656 -68.351562 17.472656 -68.082031 17.808594 -68.285156 C 18.277344 -68.417969 18.210938 -68.21875 17.539062 -67.078125 C 17.203125 -66.542969 16.9375 -66.007812 16.9375 -65.941406 C 16.9375 -65.875 16.601562 -65.339844 16.199219 -64.667969 C 15.800781 -64.066406 15.195312 -62.929688 14.863281 -62.125 C 14.527344 -61.320312 13.925781 -60.117188 13.589844 -59.378906 C 13.1875 -58.710938 12.851562 -57.972656 12.851562 -57.773438 C 12.851562 -57.574219 12.519531 -56.636719 12.117188 -55.632812 C 11.648438 -54.628906 11.179688 -53.421875 11.046875 -52.886719 C 10.910156 -52.351562 10.511719 -51.414062 10.242188 -50.609375 C 9.90625 -49.941406 8.96875 -47.332031 8.101562 -44.921875 C 6.09375 -39.097656 5.15625 -36.617188 5.289062 -37.757812 C 5.289062 -37.957031 5.355469 -38.160156 5.421875 -38.292969 C 5.554688 -38.359375 5.625 -38.492188 5.625 -38.628906 C 5.625 -39.097656 4.820312 -37.757812 4.6875 -36.953125 C 4.621094 -36.550781 4.484375 -36.082031 4.351562 -35.949219 C 4.285156 -35.816406 4.152344 -35.414062 4.082031 -35.011719 C 4.082031 -34.609375 3.949219 -34.007812 3.816406 -33.671875 C 3.414062 -32.667969 1.539062 -24.234375 1.539062 -23.496094 C 1.472656 -23.164062 1.40625 -22.761719 1.339844 -22.628906 C 1.203125 -22.492188 1.136719 -21.691406 1.070312 -20.886719 C 1.070312 -20.082031 0.9375 -19.347656 0.804688 -19.214844 C 0.601562 -19.011719 0 -15.464844 -0.132812 -13.789062 C -0.199219 -13.320312 -0.269531 -12.851562 -0.335938 -12.71875 C -0.402344 -12.585938 -0.335938 -12.386719 -0.132812 -12.25 C 0.132812 -12.117188 0.132812 -12.050781 -0.132812 -11.714844 C -0.601562 -11.246094 -0.871094 -6.761719 -0.46875 -6.761719 C -0.335938 -6.761719 -0.335938 -6.5625 -0.335938 -6.226562 C -0.46875 -5.890625 -0.269531 -5.222656 0.0664062 -4.484375 C 0.667969 -3.214844 1.136719 -2.746094 1.136719 -3.414062 C 1.136719 -3.949219 1.605469 -3.683594 1.875 -3.011719 C 2.140625 -2.410156 3.882812 -1.339844 5.085938 -1.003906 C 5.957031 -0.738281 6.492188 -0.738281 6.695312 -0.9375 C 6.761719 -1.070312 6.894531 -1.136719 7.027344 -1.136719 C 7.363281 -1.136719 8.570312 -3.480469 8.703125 -4.484375 C 8.835938 -5.019531 8.96875 -5.625 9.039062 -5.824219 C 9.707031 -7.164062 11.714844 -12.988281 11.78125 -13.722656 C 11.78125 -14.460938 13.992188 -20.484375 14.726562 -21.824219 C 14.792969 -22.023438 14.929688 -22.359375 15.0625 -22.558594 C 15.195312 -22.894531 18.277344 -29.65625 19.613281 -32.402344 Z M 54.023438 -69.757812 C 54.089844 -69.621094 54.089844 -69.355469 54.023438 -69.085938 C 53.957031 -68.886719 53.957031 -69.019531 53.957031 -69.355469 C 53.957031 -69.757812 53.957031 -69.957031 54.023438 -69.757812 Z M 53.824219 -68.417969 C 53.890625 -68.21875 53.890625 -68.015625 53.824219 -67.816406 C 53.757812 -67.679688 53.757812 -67.816406 53.757812 -68.082031 C 53.757812 -68.417969 53.757812 -68.550781 53.824219 -68.417969 Z M 56.03125 -62.792969 C 56.167969 -62.726562 54.558594 -55.964844 53.488281 -51.613281 C 52.886719 -49.40625 52.082031 -46.191406 51.679688 -44.519531 C 51.28125 -42.84375 50.609375 -40.300781 50.207031 -38.894531 C 48.335938 -32.335938 47.664062 -28.785156 47.664062 -25.976562 C 47.664062 -24.367188 47.53125 -24.300781 47.398438 -25.839844 C 47.195312 -28.117188 48 -34.34375 48.601562 -35.144531 C 48.667969 -35.347656 48.871094 -36.082031 49.070312 -36.820312 C 49.203125 -37.625 49.671875 -39.429688 50.074219 -40.96875 C 50.476562 -42.511719 51.214844 -45.121094 51.679688 -46.792969 C 52.148438 -48.535156 52.6875 -50.410156 52.886719 -51.078125 C 53.554688 -53.085938 53.957031 -54.894531 54.023438 -55.699219 C 54.089844 -56.367188 55.964844 -62.929688 56.03125 -62.792969 Z M 51.816406 -82.675781 C 51.949219 -82.742188 52.21875 -82.742188 52.417969 -82.742188 C 52.617188 -82.675781 52.484375 -82.609375 52.21875 -82.609375 C 51.882812 -82.609375 51.679688 -82.609375 51.816406 -82.675781 Z M 47.867188 -81.605469 C 48.402344 -82.007812 49.273438 -82.542969 49.273438 -82.476562 C 49.273438 -82.410156 48.9375 -82.140625 48.535156 -81.875 C 47.796875 -81.40625 47.261719 -81.203125 47.867188 -81.605469 Z M 29.65625 -56.433594 L 30.058594 -57.039062 L 29.789062 -56.300781 C 29.589844 -55.832031 29.390625 -55.5625 29.320312 -55.5625 C 29.121094 -55.5625 29.253906 -55.898438 29.65625 -56.433594 Z M 27.78125 -53.085938 C 27.847656 -53.289062 27.917969 -53.421875 27.984375 -53.355469 C 28.050781 -53.289062 27.984375 -53.085938 27.847656 -52.953125 C 27.648438 -52.6875 27.648438 -52.753906 27.78125 -53.085938 Z M 27.582031 -47.195312 C 27.648438 -47.128906 27.515625 -46.792969 27.246094 -46.527344 L 26.777344 -45.992188 L 27.113281 -46.660156 C 27.3125 -46.996094 27.515625 -47.261719 27.582031 -47.195312 Z M 26.511719 -50.410156 C 26.578125 -50.609375 26.644531 -50.878906 26.644531 -51.011719 C 26.644531 -51.214844 26.710938 -51.144531 26.84375 -50.945312 C 26.910156 -50.746094 26.910156 -50.476562 26.84375 -50.34375 C 26.84375 -50.140625 26.710938 -50.007812 26.578125 -50.007812 C 26.441406 -50.007812 26.441406 -50.207031 26.511719 -50.410156 Z M 10.710938 -43.582031 C 10.980469 -44.25 11.3125 -45.253906 11.449219 -45.789062 C 11.648438 -46.257812 12.183594 -47.730469 12.71875 -49.070312 C 13.253906 -50.34375 13.65625 -51.480469 13.65625 -51.613281 C 13.65625 -52.015625 14.527344 -54.160156 14.726562 -54.160156 C 14.792969 -54.160156 14.929688 -54.359375 14.929688 -54.628906 C 14.929688 -54.828125 14.996094 -55.027344 15.128906 -55.027344 C 15.464844 -55.027344 17.203125 -59.113281 17.003906 -59.378906 C 16.804688 -59.847656 19.613281 -65.40625 19.882812 -65.070312 C 19.949219 -65.003906 19.683594 -64.199219 19.28125 -63.398438 C 18.878906 -62.527344 18.074219 -60.851562 17.605469 -59.648438 C 17.070312 -58.441406 16 -55.964844 15.195312 -54.089844 C 14.394531 -52.285156 12.988281 -48.871094 12.050781 -46.460938 C 11.179688 -44.050781 10.375 -42.109375 10.308594 -42.042969 C 10.175781 -41.773438 10.242188 -42.308594 10.710938 -43.582031 Z M 9.304688 -39.566406 C 9.574219 -40.570312 10.242188 -42.042969 10.242188 -41.707031 C 10.242188 -41.640625 10.042969 -40.96875 9.773438 -40.234375 C 9.238281 -38.628906 8.96875 -38.160156 9.304688 -39.566406 Z M 4.886719 -22.09375 C 4.820312 -21.625 4.550781 -20.285156 4.285156 -19.011719 C 4.015625 -17.742188 3.546875 -15.398438 3.28125 -13.722656 C 2.8125 -11.179688 2.8125 -10.980469 2.878906 -12.316406 C 3.011719 -14.527344 3.28125 -16.601562 3.546875 -17.339844 C 3.683594 -17.742188 3.816406 -18.675781 3.882812 -19.414062 C 3.949219 -20.21875 4.082031 -21.289062 4.285156 -21.757812 C 4.484375 -22.292969 4.6875 -23.164062 4.820312 -23.832031 C 5.019531 -25.574219 5.355469 -26.910156 5.554688 -26.84375 C 5.625 -26.777344 5.691406 -27.046875 5.757812 -27.378906 C 5.757812 -28.453125 6.425781 -30.792969 6.695312 -30.59375 C 6.761719 -30.527344 6.828125 -30.59375 6.761719 -30.726562 C 6.628906 -30.996094 8.234375 -36.820312 8.769531 -37.890625 C 9.171875 -38.761719 9.105469 -38.160156 8.636719 -36.617188 C 8.035156 -34.675781 7.632812 -33.203125 7.230469 -31.464844 C 7.027344 -30.660156 6.425781 -28.382812 5.957031 -26.441406 C 5.421875 -24.5 4.953125 -22.558594 4.886719 -22.09375 Z M 4.886719 -22.09375 "/></g></g></g><g fill="#ffffff" fill-opacity="1"><g transform="translate(163.436585, 219.38688)"><g><path d="M 38.894531 -36.285156 C 38.628906 -36.285156 37.757812 -35.480469 37.625 -34.945312 C 37.554688 -34.746094 37.289062 -34.609375 37.085938 -34.542969 C 36.820312 -34.476562 36.148438 -33.941406 35.546875 -33.273438 C 34.878906 -32.667969 34.34375 -32.199219 34.277344 -32.199219 C 34.277344 -32.265625 34.410156 -32.535156 34.675781 -32.804688 C 34.878906 -33.003906 35.078125 -33.339844 34.945312 -33.539062 C 34.878906 -33.742188 34.277344 -33.273438 32.9375 -31.933594 C 31.730469 -30.792969 30.929688 -30.125 30.863281 -30.257812 C 30.726562 -30.394531 30.058594 -29.992188 29.054688 -29.054688 C 25.304688 -25.839844 22.761719 -24.101562 19.480469 -22.628906 C 18.007812 -21.957031 16.9375 -21.757812 16.132812 -21.957031 C 15.664062 -22.023438 15.664062 -22.160156 15.664062 -23.230469 C 15.664062 -24.835938 16.269531 -26.980469 17.671875 -30.460938 C 18.34375 -32.199219 19.214844 -34.410156 19.546875 -35.480469 C 19.882812 -36.484375 20.484375 -38.226562 20.886719 -39.230469 C 21.289062 -40.5 21.554688 -41.507812 21.554688 -42.175781 C 21.554688 -43.179688 21.085938 -44.453125 20.6875 -44.453125 C 20.550781 -44.453125 20.21875 -44.652344 19.949219 -44.921875 C 19.75 -45.121094 19.414062 -45.457031 19.28125 -45.523438 C 19.078125 -45.65625 18.746094 -46.191406 18.410156 -46.792969 C 18.074219 -47.53125 17.605469 -48.066406 17.203125 -48.402344 C 16.804688 -48.601562 16.402344 -48.9375 16.269531 -49.070312 C 16.132812 -49.273438 15.53125 -49.472656 14.996094 -49.605469 C 13.65625 -49.941406 12.71875 -49.671875 11.648438 -48.667969 C 11.246094 -48.335938 10.644531 -47.933594 10.375 -47.933594 C 10.042969 -47.796875 9.238281 -47.0625 7.964844 -45.722656 C 5.824219 -43.3125 4.152344 -41.304688 4.21875 -41.105469 C 4.21875 -41.039062 3.75 -40.300781 3.078125 -39.566406 C 2.476562 -38.761719 2.007812 -37.957031 2.007812 -37.824219 C 2.007812 -37.625 1.875 -37.421875 1.742188 -37.289062 C 1.539062 -37.15625 -0.402344 -34.542969 -1.273438 -33.136719 C -1.671875 -32.46875 -2.609375 -31.128906 -3.214844 -30.394531 C -3.480469 -30.058594 -3.882812 -29.390625 -4.082031 -28.921875 C -4.351562 -28.519531 -4.621094 -28.117188 -4.6875 -28.117188 C -4.820312 -28.117188 -4.886719 -28.050781 -4.886719 -27.917969 C -4.886719 -27.78125 -4.753906 -27.78125 -4.550781 -27.917969 C -3.949219 -28.453125 -4.152344 -27.917969 -5.019531 -26.644531 C -5.824219 -25.574219 -5.957031 -25.238281 -5.824219 -24.902344 C -5.757812 -24.570312 -5.824219 -24.167969 -6.160156 -23.566406 C -6.359375 -23.027344 -6.5625 -22.492188 -6.5625 -22.292969 C -6.5625 -22.023438 -6.628906 -22.023438 -6.761719 -22.226562 C -7.027344 -22.628906 -6.628906 -24.5 -6.023438 -25.773438 C -5.355469 -27.179688 -5.355469 -27.179688 -5.625 -27.179688 C -5.757812 -27.179688 -6.09375 -26.511719 -6.492188 -25.773438 C -7.632812 -23.429688 -7.566406 -21.691406 -6.425781 -20.820312 C -6.226562 -20.6875 -6.226562 -20.550781 -6.359375 -20.484375 C -6.5625 -20.351562 -6.425781 -19.613281 -6.160156 -19.613281 C -6.09375 -19.613281 -5.890625 -19.480469 -5.757812 -19.28125 C -5.625 -19.144531 -5.222656 -18.878906 -4.820312 -18.675781 C -4.015625 -18.210938 -3.546875 -18.34375 -1.808594 -19.882812 C -0.0664062 -21.289062 0.335938 -21.824219 3.214844 -25.574219 C 4.484375 -27.246094 6.09375 -29.320312 6.894531 -30.257812 C 7.632812 -31.195312 8.433594 -32.199219 8.636719 -32.535156 C 8.835938 -32.871094 9.039062 -33.070312 9.039062 -33.003906 C 9.039062 -32.601562 9.773438 -33.671875 9.773438 -34.074219 C 9.773438 -34.277344 9.90625 -34.410156 10.042969 -34.410156 C 10.175781 -34.410156 11.246094 -35.28125 12.316406 -36.351562 C 13.859375 -37.890625 14.460938 -38.359375 14.996094 -38.492188 C 15.53125 -38.558594 15.800781 -38.828125 16.335938 -39.699219 C 16.734375 -40.234375 17.40625 -40.902344 17.808594 -41.171875 L 18.476562 -41.640625 L 17.539062 -39.832031 C 16.667969 -38.160156 14.863281 -34.007812 13.859375 -31.195312 C 13.589844 -30.394531 13.253906 -29.589844 13.1875 -29.390625 C 12.785156 -28.71875 12.453125 -26.644531 12.453125 -25.507812 C 12.453125 -24.035156 12.921875 -22.761719 13.65625 -22.160156 C 13.925781 -21.890625 14.191406 -21.554688 14.191406 -21.421875 C 14.257812 -20.886719 15.332031 -19.949219 16.132812 -19.613281 C 17.941406 -18.8125 19.816406 -18.945312 22.558594 -20.152344 C 25.371094 -21.355469 30.058594 -24.769531 30.058594 -25.574219 C 30.058594 -25.707031 30.191406 -25.839844 30.257812 -25.773438 C 30.460938 -25.640625 33.671875 -28.71875 33.671875 -29.054688 C 33.671875 -29.121094 34.542969 -30.191406 35.613281 -31.332031 C 36.6875 -32.46875 37.488281 -33.539062 37.488281 -33.605469 C 37.488281 -33.742188 37.625 -33.808594 37.691406 -33.808594 C 37.757812 -33.808594 37.957031 -34.074219 37.957031 -34.410156 C 38.023438 -34.746094 38.359375 -35.28125 38.695312 -35.546875 C 39.296875 -36.082031 39.363281 -36.285156 38.894531 -36.285156 Z M -0.132812 -33.472656 C 0 -33.472656 0.0664062 -33.605469 0.0664062 -33.742188 C 0.0664062 -33.941406 0.132812 -34.007812 0.269531 -33.941406 C 0.402344 -33.875 0.335938 -33.671875 0.199219 -33.472656 C -0.0664062 -33.070312 -0.269531 -32.9375 -0.269531 -33.273438 C -0.269531 -33.339844 -0.199219 -33.472656 -0.132812 -33.472656 Z M 8.503906 -34.277344 C 8.300781 -34.542969 8.300781 -34.609375 8.503906 -34.746094 C 8.703125 -34.945312 8.769531 -34.878906 8.835938 -34.609375 C 8.96875 -34.140625 8.769531 -33.941406 8.503906 -34.277344 Z M 11.917969 -38.960938 C 11.714844 -38.695312 11.582031 -38.359375 11.582031 -38.226562 C 11.648438 -38.089844 11.515625 -38.023438 11.3125 -38.023438 C 11.046875 -38.023438 10.175781 -37.15625 8.703125 -35.546875 C 7.429688 -34.207031 6.425781 -33.070312 6.359375 -33.070312 C 6.226562 -33.070312 8.167969 -35.214844 10.109375 -37.222656 C 11.3125 -38.425781 12.117188 -39.230469 11.917969 -38.960938 Z M 14.328125 -44.316406 C 13.589844 -42.644531 13.390625 -42.375 11.582031 -40.5 C 9.90625 -38.828125 9.707031 -38.558594 9.976562 -38.292969 C 10.175781 -38.023438 10.175781 -37.957031 9.707031 -38.023438 C 9.238281 -38.089844 8.96875 -37.824219 7.296875 -36.015625 C 6.160156 -34.746094 5.488281 -33.875 5.554688 -33.742188 C 5.691406 -33.605469 5.691406 -33.339844 5.554688 -33.136719 C 5.488281 -32.9375 5.421875 -32.871094 5.421875 -33.003906 C 5.355469 -33.808594 4.550781 -32.9375 1.003906 -28.652344 C -0.871094 -26.441406 -1.273438 -26.042969 -1.273438 -26.375 C -1.273438 -26.777344 1.941406 -32.265625 2.609375 -33.003906 C 2.746094 -33.203125 3.683594 -34.410156 4.6875 -35.75 C 5.625 -37.019531 6.960938 -38.695312 7.699219 -39.429688 C 9.976562 -41.90625 10.710938 -42.777344 10.710938 -43.179688 C 10.710938 -43.3125 10.777344 -43.582031 10.910156 -43.648438 C 11.113281 -43.714844 11.113281 -43.648438 11.046875 -43.449219 C 10.84375 -43.046875 11.179688 -43.046875 11.582031 -43.515625 C 12.050781 -44.050781 14.929688 -46.394531 15.0625 -46.324219 C 15.0625 -46.257812 14.726562 -45.390625 14.328125 -44.316406 Z M 14.328125 -44.316406 "/></g></g></g><g fill="#ffffff" fill-opacity="1"><g transform="translate(196.905367, 219.38688)"><g><path d="M 47.796875 -34.207031 C 47.53125 -34.410156 47.332031 -34.675781 47.332031 -34.746094 C 47.53125 -35.078125 46.058594 -35.882812 44.851562 -36.082031 C 43.246094 -36.351562 39.230469 -35.480469 36.148438 -34.207031 C 33.339844 -32.9375 32.871094 -32.804688 32.535156 -32.804688 C 32.402344 -32.871094 31.398438 -32.46875 30.394531 -31.933594 C 29.320312 -31.464844 28.453125 -31.0625 28.453125 -31.0625 C 28.453125 -31.0625 28.585938 -31.933594 28.71875 -33.003906 C 29.1875 -36.21875 29.1875 -40.300781 28.585938 -44.851562 C 28.25 -47.597656 27.984375 -48.535156 27.515625 -48.601562 C 27.246094 -48.601562 27.113281 -48.734375 27.179688 -49.070312 C 27.179688 -49.605469 26.441406 -50.207031 25.773438 -50.277344 C 25.574219 -50.277344 25.574219 -50.410156 25.90625 -50.746094 C 26.109375 -50.945312 26.242188 -51.214844 26.175781 -51.347656 C 26.042969 -51.414062 25.507812 -51.011719 24.96875 -50.34375 C 24.101562 -49.472656 23.898438 -49.273438 23.832031 -49.605469 C 23.765625 -49.941406 23.496094 -49.738281 22.761719 -48.804688 L 21.691406 -47.597656 L 21.289062 -48.535156 C 20.820312 -49.605469 19.882812 -50.34375 17.875 -51.480469 C 16.667969 -52.082031 16.46875 -52.148438 15.53125 -52.015625 C 14.929688 -51.949219 14.191406 -51.816406 13.789062 -51.75 C 12.71875 -51.613281 10.710938 -50.074219 8.902344 -48.066406 C 6.628906 -45.523438 2.476562 -39.765625 1.339844 -37.554688 C -0.871094 -33.472656 -2.746094 -28.183594 -2.878906 -25.574219 C -3.078125 -22.558594 -1.671875 -18.878906 -0.46875 -19.078125 C -0.132812 -19.078125 0.0664062 -19.011719 0.132812 -18.8125 C 0.335938 -18.210938 1.003906 -18.074219 2.34375 -18.277344 C 4.21875 -18.675781 5.019531 -19.144531 7.027344 -21.222656 C 9.4375 -23.566406 11.3125 -25.976562 10.511719 -25.507812 C 10.109375 -25.238281 10.175781 -25.507812 11.113281 -26.980469 C 12.050781 -28.382812 20.015625 -38.628906 21.085938 -39.765625 C 21.421875 -40.167969 21.957031 -40.902344 22.292969 -41.507812 C 22.628906 -42.109375 23.429688 -43.378906 23.964844 -44.382812 L 24.96875 -46.125 L 25.105469 -45.1875 C 25.839844 -39.632812 25.574219 -34.277344 24.433594 -29.1875 C 24.101562 -27.78125 24.101562 -27.714844 22.894531 -26.910156 C 16.804688 -23.097656 6.628906 -14.863281 -0.46875 -8.101562 C -10.445312 1.472656 -18.410156 11.113281 -22.425781 18.542969 C -23.230469 20.015625 -23.964844 21.222656 -24.035156 21.15625 C -24.101562 21.085938 -24.101562 21.289062 -24.035156 21.554688 C -24.035156 21.890625 -24.035156 21.957031 -24.167969 21.824219 C -24.300781 21.554688 -24.570312 22.226562 -25.171875 23.699219 C -26.242188 26.710938 -26.710938 28.785156 -26.441406 29.320312 C -26.308594 29.589844 -26.308594 29.789062 -26.441406 29.925781 C -26.578125 30.058594 -26.441406 30.59375 -26.175781 31.398438 C -25.90625 32.066406 -25.773438 32.871094 -25.773438 33.136719 C -25.839844 34.410156 -23.898438 37.625 -22.960938 37.691406 C -22.761719 37.691406 -22.160156 37.957031 -21.554688 38.226562 C -19.144531 39.429688 -16.402344 38.761719 -11.378906 35.882812 C -9.371094 34.675781 -9.171875 34.476562 -6.425781 32.535156 C -4.6875 31.261719 0.335938 26.910156 2.140625 25.105469 C 7.027344 20.21875 10.980469 14.660156 14.996094 6.960938 C 19.480469 -1.808594 23.632812 -12.453125 26.308594 -22.292969 C 26.644531 -23.496094 26.980469 -24.703125 27.113281 -24.96875 C 27.449219 -26.042969 36.285156 -30.726562 41.507812 -32.667969 C 43.847656 -33.472656 44.183594 -33.539062 45.992188 -33.472656 C 48.132812 -33.40625 48.734375 -33.605469 47.796875 -34.207031 Z M 14.792969 -38.226562 C 13.789062 -37.019531 12.652344 -35.75 12.316406 -35.480469 C 11.984375 -35.144531 11.113281 -34.074219 10.308594 -33.070312 C 9.507812 -32.066406 8.300781 -30.726562 7.632812 -30.058594 C 6.894531 -29.390625 5.554688 -27.917969 4.621094 -26.84375 C 3.613281 -25.773438 2.542969 -24.769531 2.277344 -24.570312 C 1.808594 -24.300781 1.808594 -24.300781 2.007812 -24.902344 C 2.8125 -27.648438 6.292969 -34.207031 9.039062 -37.957031 C 12.183594 -42.242188 17.339844 -47.867188 17.671875 -47.398438 C 17.742188 -47.332031 17.941406 -46.191406 18.074219 -44.921875 C 18.277344 -42.375 18.210938 -42.042969 17.136719 -40.96875 C 16.871094 -40.703125 15.867188 -39.496094 14.792969 -38.226562 Z M 18.476562 -37.421875 C 18.34375 -37.289062 18.210938 -37.15625 18.140625 -37.15625 C 18.074219 -37.15625 18.140625 -37.289062 18.277344 -37.421875 C 18.476562 -37.625 18.609375 -37.757812 18.675781 -37.757812 C 18.746094 -37.757812 18.675781 -37.625 18.476562 -37.421875 Z M 18.34375 -39.898438 C 17.808594 -39.164062 17.273438 -38.558594 17.203125 -38.558594 C 17.003906 -38.558594 18.476562 -40.5 19.011719 -40.835938 C 19.214844 -41.105469 18.945312 -40.636719 18.34375 -39.898438 Z M -12.316406 35.28125 C -12.316406 35.480469 -12.453125 35.613281 -12.519531 35.613281 C -12.652344 35.613281 -12.652344 35.480469 -12.585938 35.28125 C -12.519531 35.078125 -12.453125 34.945312 -12.386719 34.945312 C -12.316406 34.945312 -12.316406 35.078125 -12.316406 35.28125 Z M -10.910156 34.609375 C -10.980469 34.746094 -11.179688 34.8125 -11.3125 34.8125 C -11.378906 34.8125 -11.449219 34.675781 -11.378906 34.542969 C -11.246094 34.410156 -11.113281 34.34375 -10.980469 34.34375 C -10.910156 34.34375 -10.84375 34.476562 -10.910156 34.609375 Z M -9.640625 33.875 C -9.839844 34.074219 -10.109375 34.207031 -10.242188 34.207031 C -10.375 34.207031 -10.242188 34.007812 -10.042969 33.875 C -9.773438 33.671875 -9.507812 33.539062 -9.371094 33.539062 C -9.304688 33.605469 -9.371094 33.742188 -9.640625 33.875 Z M -5.15625 30.726562 C -5.355469 30.996094 -5.824219 31.332031 -6.226562 31.597656 C -6.695312 31.867188 -7.496094 32.46875 -8.035156 32.871094 C -8.636719 33.273438 -9.105469 33.472656 -9.105469 33.339844 C -9.039062 33.203125 -8.636719 32.871094 -8.167969 32.601562 C -7.632812 32.265625 -7.164062 31.933594 -7.097656 31.933594 C -7.027344 31.867188 -6.492188 31.464844 -5.890625 31.0625 C -5.289062 30.660156 -4.953125 30.527344 -5.15625 30.726562 Z M -3.480469 29.390625 C -4.015625 29.859375 -4.484375 30.257812 -4.621094 30.257812 C -4.6875 30.191406 -4.351562 29.789062 -3.816406 29.253906 C -3.28125 28.71875 -2.8125 28.382812 -2.746094 28.453125 C -2.679688 28.453125 -3.011719 28.921875 -3.480469 29.390625 Z M -0.9375 27.179688 C -1.742188 27.917969 -2.476562 28.453125 -2.476562 28.183594 C -2.476562 28.050781 -1.339844 27.046875 -0.667969 26.644531 C -0.402344 26.441406 -0.535156 26.710938 -0.9375 27.179688 Z M 1.671875 24.570312 C 1.339844 25.039062 0.871094 25.371094 0.804688 25.304688 C 0.535156 25.304688 0.601562 25.238281 1.539062 24.367188 C 2.542969 23.429688 2.679688 23.496094 1.671875 24.570312 Z M 1.808594 21.957031 C 1.539062 21.957031 1.671875 21.890625 2.34375 21.222656 L 3.078125 20.617188 L 2.542969 21.289062 C 2.210938 21.691406 1.875 21.957031 1.808594 21.957031 Z M 4.6875 20.6875 C 4.621094 20.886719 4.550781 21.019531 4.417969 21.019531 C 4.351562 21.019531 4.285156 20.886719 4.351562 20.6875 C 4.417969 20.484375 4.550781 20.351562 4.621094 20.351562 C 4.621094 20.351562 4.6875 20.484375 4.6875 20.6875 Z M 4.6875 19.949219 C 2.609375 22.292969 1.808594 23.027344 3.414062 21.019531 C 4.285156 19.949219 5.15625 18.945312 5.289062 18.8125 C 5.890625 18.34375 5.625 18.878906 4.6875 19.949219 Z M 7.898438 16.535156 C 7.699219 16.734375 7.496094 16.871094 7.363281 16.804688 C 7.230469 16.804688 7.097656 16.9375 7.027344 17.070312 C 6.960938 17.273438 7.027344 17.339844 7.164062 17.273438 C 7.296875 17.136719 7.363281 17.203125 7.230469 17.472656 C 7.097656 17.742188 7.027344 17.742188 6.960938 17.539062 C 6.828125 17.339844 6.761719 17.40625 6.5625 17.605469 C 6.359375 17.808594 6.292969 18.007812 6.359375 18.210938 C 6.492188 18.476562 6.492188 18.476562 6.09375 18.277344 C 5.957031 18.140625 6.09375 17.808594 6.695312 17.003906 C 7.164062 16.402344 7.699219 15.730469 7.832031 15.597656 C 8.035156 15.464844 8.035156 15.464844 7.898438 15.597656 C 7.566406 16 7.566406 16.535156 7.898438 16.335938 C 8.101562 16.199219 8.101562 16.269531 7.898438 16.535156 Z M 7.027344 14.328125 C 7.164062 14.125 7.296875 13.992188 7.363281 14.058594 C 7.363281 14.125 7.296875 14.328125 7.164062 14.460938 C 6.960938 14.660156 6.894531 14.59375 7.027344 14.328125 Z M 11.847656 9.507812 C 11.714844 9.640625 11.582031 9.976562 11.582031 10.308594 C 11.582031 10.578125 11.378906 10.84375 11.246094 10.910156 C 11.046875 10.980469 10.84375 11.246094 10.84375 11.515625 C 10.84375 11.847656 10.578125 12.25 10.308594 12.585938 C 10.042969 12.851562 9.839844 13.253906 9.839844 13.390625 C 9.773438 13.589844 9.707031 13.722656 9.574219 13.65625 C 9.4375 13.65625 9.304688 13.789062 9.304688 13.992188 C 9.304688 14.257812 9.238281 14.394531 9.039062 14.394531 C 8.902344 14.394531 8.703125 14.527344 8.570312 14.726562 C 8.433594 14.863281 8.367188 14.929688 8.367188 14.863281 C 8.367188 14.792969 8.96875 13.789062 9.640625 12.71875 C 10.308594 11.648438 11.113281 10.375 11.378906 9.839844 C 11.648438 9.371094 11.917969 9.039062 11.984375 9.105469 C 12.050781 9.171875 12.050781 9.371094 11.847656 9.507812 Z M 9.839844 9.976562 C 9.90625 9.707031 10.042969 9.640625 10.109375 9.707031 C 10.175781 9.773438 10.109375 9.976562 9.976562 10.042969 C 9.707031 10.308594 9.707031 10.242188 9.839844 9.976562 Z M 12.519531 8.433594 C 12.386719 8.570312 12.316406 8.503906 12.316406 8.367188 C 12.316406 8.234375 12.453125 8.101562 12.519531 8.101562 C 12.652344 8.167969 12.71875 8.167969 12.71875 8.234375 C 12.71875 8.300781 12.652344 8.433594 12.519531 8.433594 Z M 13.121094 5.019531 C 12.988281 5.15625 12.921875 5.222656 12.921875 5.085938 C 12.921875 4.953125 13.054688 4.753906 13.1875 4.550781 C 13.320312 4.351562 13.390625 4.351562 13.390625 4.484375 C 13.390625 4.550781 13.253906 4.820312 13.121094 5.019531 Z M 16.402344 1.070312 C 16.066406 1.808594 15.867188 2.210938 15.867188 1.941406 C 15.867188 1.671875 16.601562 0.199219 16.667969 0.199219 C 16.734375 0.199219 16.601562 0.601562 16.402344 1.070312 Z M 17.539062 -1.273438 C 17.273438 -0.738281 17.070312 -0.402344 17.070312 -0.46875 C 17.070312 -0.738281 17.808594 -2.476562 17.941406 -2.34375 C 17.941406 -2.277344 17.808594 -1.808594 17.539062 -1.273438 Z M 19.078125 -4.820312 C 18.476562 -3.613281 18.476562 -3.75 19.214844 -5.554688 C 19.414062 -6.09375 19.613281 -6.359375 19.613281 -6.226562 C 19.683594 -6.09375 19.414062 -5.488281 19.078125 -4.820312 Z M 20.152344 -7.164062 C 19.816406 -6.359375 19.683594 -6.492188 20.015625 -7.296875 C 20.152344 -7.699219 20.285156 -7.964844 20.351562 -7.832031 C 20.417969 -7.832031 20.351562 -7.496094 20.152344 -7.164062 Z M 21.691406 -20.015625 C 21.355469 -19.011719 20.886719 -17.605469 20.6875 -16.871094 C 20.015625 -14.660156 18.8125 -11.847656 15.398438 -4.285156 C 12.183594 2.878906 8.703125 9.171875 5.421875 13.925781 C 2.746094 17.742188 1.472656 19.28125 -2.410156 23.027344 C -4.152344 24.703125 -5.488281 26.175781 -5.421875 26.242188 C -5.289062 26.441406 -4.21875 25.640625 -2.542969 23.964844 C -1.742188 23.164062 -1.003906 22.492188 -0.9375 22.558594 C -0.871094 22.695312 -0.9375 22.894531 -1.136719 23.027344 C -1.273438 23.230469 -1.339844 23.363281 -1.203125 23.429688 C -0.9375 23.429688 1.539062 20.953125 3.144531 19.011719 C 3.816406 18.210938 4.820312 17.070312 5.355469 16.535156 C 6.226562 15.597656 4.484375 17.671875 2.074219 20.550781 C 0.46875 22.425781 -4.820312 27.449219 -6.5625 28.785156 C -8.503906 30.191406 -11.378906 32.066406 -11.648438 32.066406 C -11.78125 32.066406 -11.917969 32.199219 -11.984375 32.402344 C -12.585938 33.671875 -6.695312 29.789062 -3.011719 26.441406 C 0.738281 22.960938 1.273438 22.558594 -1.539062 25.371094 C -3.144531 26.910156 -5.625 29.054688 -7.027344 30.058594 C -8.433594 31.128906 -9.640625 31.933594 -9.707031 31.933594 C -9.707031 31.933594 -10.777344 32.535156 -12.050781 33.273438 C -14.996094 34.945312 -15.933594 35.347656 -17.742188 35.882812 C -18.609375 36.148438 -19.546875 36.285156 -19.882812 36.285156 C -20.285156 36.21875 -20.152344 36.148438 -19.347656 35.949219 C -18.007812 35.546875 -17.136719 35.078125 -16.601562 34.476562 C -16.066406 33.941406 -16.46875 33.808594 -17.136719 34.277344 C -17.742188 34.675781 -20.152344 35.347656 -20.617188 35.347656 C -20.820312 35.347656 -20.6875 35.214844 -20.285156 35.144531 C -19.144531 34.8125 -19.480469 34.476562 -21.222656 34.410156 C -23.097656 34.277344 -23.429688 34.074219 -23.496094 32.804688 C -23.632812 31.597656 -23.027344 28.382812 -22.292969 26.242188 C -21.222656 23.097656 -17.808594 16.535156 -16 14.191406 C -15.664062 13.789062 -14.863281 12.71875 -14.125 11.78125 C -13.390625 10.84375 -12.316406 9.574219 -11.847656 8.902344 C -11.3125 8.234375 -10.777344 7.566406 -10.578125 7.363281 C -10.375 7.230469 -9.4375 6.226562 -8.570312 5.222656 C -5.15625 1.40625 0.132812 -3.949219 4.417969 -7.765625 C 6.894531 -9.90625 9.171875 -11.984375 9.507812 -12.316406 C 9.90625 -12.71875 11.648438 -14.125 13.390625 -15.53125 C 15.128906 -16.871094 16.667969 -18.140625 16.804688 -18.277344 C 16.9375 -18.410156 17.273438 -18.675781 17.605469 -18.878906 C 18.007812 -19.078125 18.140625 -19.347656 18.074219 -19.613281 C 18.007812 -19.882812 18.074219 -19.949219 18.210938 -19.683594 C 18.34375 -19.414062 18.746094 -19.546875 20.152344 -20.6875 C 21.085938 -21.421875 21.890625 -22.160156 21.957031 -22.292969 C 21.957031 -22.492188 22.160156 -22.695312 22.359375 -22.761719 C 22.828125 -23.027344 22.894531 -23.164062 21.691406 -20.015625 Z M 15.867188 -18.074219 C 16 -18.277344 16.199219 -18.410156 16.269531 -18.410156 C 16.269531 -18.410156 16.199219 -18.277344 16.066406 -18.074219 C 15.867188 -17.875 15.730469 -17.742188 15.664062 -17.742188 C 15.597656 -17.742188 15.664062 -17.941406 15.867188 -18.074219 Z M 22.828125 -25.171875 C 22.226562 -24.769531 20.550781 -23.566406 19.011719 -22.492188 C 16.601562 -20.753906 12.519531 -17.605469 10.242188 -15.730469 C 4.820312 -11.113281 -2.746094 -3.949219 -6.492188 0.132812 C -7.832031 1.605469 -9.371094 3.214844 -9.839844 3.683594 C -10.308594 4.152344 -11.179688 5.085938 -11.78125 5.824219 C -14.792969 9.4375 -15.933594 10.910156 -16.734375 11.984375 C -17.808594 13.589844 -17.875 13.65625 -17.875 13.457031 C -17.875 13.320312 -17.605469 12.851562 -17.273438 12.386719 C -16.9375 11.917969 -16.734375 11.449219 -16.804688 11.3125 C -16.9375 10.910156 -12.71875 5.691406 -8.835938 1.339844 C -7.699219 0.132812 -6.628906 -1.136719 -6.359375 -1.472656 C -5.15625 -2.945312 -2.609375 -5.488281 -2.34375 -5.355469 C -2.074219 -5.222656 -1.539062 -5.957031 -1.742188 -6.292969 C -1.808594 -6.359375 -1.808594 -6.425781 -1.742188 -6.292969 C -1.472656 -6.023438 7.964844 -14.527344 7.765625 -14.929688 C 7.765625 -14.996094 7.898438 -15.0625 8.101562 -15.0625 C 8.570312 -15.0625 9.238281 -15.53125 9.238281 -15.933594 C 9.238281 -16.335938 10.375 -17.273438 10.511719 -17.070312 C 10.578125 -17.003906 10.710938 -17.203125 10.910156 -17.40625 C 11.046875 -17.742188 11.3125 -17.875 11.449219 -17.875 C 11.78125 -17.742188 12.316406 -18.210938 12.183594 -18.476562 C 12.183594 -18.542969 12.25 -18.675781 12.386719 -18.8125 C 12.519531 -18.878906 12.585938 -18.878906 12.453125 -18.609375 C 12.316406 -18.476562 12.585938 -18.675781 12.988281 -19.078125 C 14.792969 -20.820312 19.882812 -24.5 20.417969 -24.5 C 20.6875 -24.5 20.953125 -24.703125 21.085938 -24.96875 C 21.488281 -25.507812 23.496094 -26.84375 23.699219 -26.644531 C 24.101562 -26.375 23.765625 -25.90625 22.828125 -25.171875 Z M 33.539062 -32.066406 C 33.40625 -32 33.273438 -31.867188 33.203125 -31.867188 C 32.871094 -31.867188 32.9375 -32.066406 33.339844 -32.199219 C 33.539062 -32.265625 33.605469 -32.199219 33.539062 -32.066406 Z M 34.675781 -32.601562 C 34.140625 -32.335938 33.671875 -32.199219 33.875 -32.402344 C 34.074219 -32.601562 35.347656 -33.136719 35.347656 -33.003906 C 35.347656 -32.9375 35.078125 -32.734375 34.675781 -32.601562 Z M 44.183594 -34.945312 C 42.042969 -35.078125 41.640625 -35.011719 39.632812 -34.410156 C 38.359375 -34.007812 36.953125 -33.539062 36.550781 -33.339844 C 36.082031 -33.203125 35.75 -33.136719 35.882812 -33.273438 C 36.21875 -33.539062 39.097656 -34.542969 40.902344 -35.078125 C 42.644531 -35.480469 45.925781 -35.480469 46.324219 -35.011719 C 46.460938 -34.878906 45.722656 -34.8125 44.183594 -34.945312 Z M 44.183594 -34.945312 "/></g></g></g><g fill="#ffffff" fill-opacity="1"><g transform="translate(240.749465, 219.38688)"><g><path d="M 38.894531 -36.285156 C 38.628906 -36.285156 37.757812 -35.480469 37.625 -34.945312 C 37.554688 -34.746094 37.289062 -34.609375 37.085938 -34.542969 C 36.820312 -34.476562 36.148438 -33.941406 35.546875 -33.273438 C 34.878906 -32.667969 34.34375 -32.199219 34.277344 -32.199219 C 34.277344 -32.265625 34.410156 -32.535156 34.675781 -32.804688 C 34.878906 -33.003906 35.078125 -33.339844 34.945312 -33.539062 C 34.878906 -33.742188 34.277344 -33.273438 32.9375 -31.933594 C 31.730469 -30.792969 30.929688 -30.125 30.863281 -30.257812 C 30.726562 -30.394531 30.058594 -29.992188 29.054688 -29.054688 C 25.304688 -25.839844 22.761719 -24.101562 19.480469 -22.628906 C 18.007812 -21.957031 16.9375 -21.757812 16.132812 -21.957031 C 15.664062 -22.023438 15.664062 -22.160156 15.664062 -23.230469 C 15.664062 -24.835938 16.269531 -26.980469 17.671875 -30.460938 C 18.34375 -32.199219 19.214844 -34.410156 19.546875 -35.480469 C 19.882812 -36.484375 20.484375 -38.226562 20.886719 -39.230469 C 21.289062 -40.5 21.554688 -41.507812 21.554688 -42.175781 C 21.554688 -43.179688 21.085938 -44.453125 20.6875 -44.453125 C 20.550781 -44.453125 20.21875 -44.652344 19.949219 -44.921875 C 19.75 -45.121094 19.414062 -45.457031 19.28125 -45.523438 C 19.078125 -45.65625 18.746094 -46.191406 18.410156 -46.792969 C 18.074219 -47.53125 17.605469 -48.066406 17.203125 -48.402344 C 16.804688 -48.601562 16.402344 -48.9375 16.269531 -49.070312 C 16.132812 -49.273438 15.53125 -49.472656 14.996094 -49.605469 C 13.65625 -49.941406 12.71875 -49.671875 11.648438 -48.667969 C 11.246094 -48.335938 10.644531 -47.933594 10.375 -47.933594 C 10.042969 -47.796875 9.238281 -47.0625 7.964844 -45.722656 C 5.824219 -43.3125 4.152344 -41.304688 4.21875 -41.105469 C 4.21875 -41.039062 3.75 -40.300781 3.078125 -39.566406 C 2.476562 -38.761719 2.007812 -37.957031 2.007812 -37.824219 C 2.007812 -37.625 1.875 -37.421875 1.742188 -37.289062 C 1.539062 -37.15625 -0.402344 -34.542969 -1.273438 -33.136719 C -1.671875 -32.46875 -2.609375 -31.128906 -3.214844 -30.394531 C -3.480469 -30.058594 -3.882812 -29.390625 -4.082031 -28.921875 C -4.351562 -28.519531 -4.621094 -28.117188 -4.6875 -28.117188 C -4.820312 -28.117188 -4.886719 -28.050781 -4.886719 -27.917969 C -4.886719 -27.78125 -4.753906 -27.78125 -4.550781 -27.917969 C -3.949219 -28.453125 -4.152344 -27.917969 -5.019531 -26.644531 C -5.824219 -25.574219 -5.957031 -25.238281 -5.824219 -24.902344 C -5.757812 -24.570312 -5.824219 -24.167969 -6.160156 -23.566406 C -6.359375 -23.027344 -6.5625 -22.492188 -6.5625 -22.292969 C -6.5625 -22.023438 -6.628906 -22.023438 -6.761719 -22.226562 C -7.027344 -22.628906 -6.628906 -24.5 -6.023438 -25.773438 C -5.355469 -27.179688 -5.355469 -27.179688 -5.625 -27.179688 C -5.757812 -27.179688 -6.09375 -26.511719 -6.492188 -25.773438 C -7.632812 -23.429688 -7.566406 -21.691406 -6.425781 -20.820312 C -6.226562 -20.6875 -6.226562 -20.550781 -6.359375 -20.484375 C -6.5625 -20.351562 -6.425781 -19.613281 -6.160156 -19.613281 C -6.09375 -19.613281 -5.890625 -19.480469 -5.757812 -19.28125 C -5.625 -19.144531 -5.222656 -18.878906 -4.820312 -18.675781 C -4.015625 -18.210938 -3.546875 -18.34375 -1.808594 -19.882812 C -0.0664062 -21.289062 0.335938 -21.824219 3.214844 -25.574219 C 4.484375 -27.246094 6.09375 -29.320312 6.894531 -30.257812 C 7.632812 -31.195312 8.433594 -32.199219 8.636719 -32.535156 C 8.835938 -32.871094 9.039062 -33.070312 9.039062 -33.003906 C 9.039062 -32.601562 9.773438 -33.671875 9.773438 -34.074219 C 9.773438 -34.277344 9.90625 -34.410156 10.042969 -34.410156 C 10.175781 -34.410156 11.246094 -35.28125 12.316406 -36.351562 C 13.859375 -37.890625 14.460938 -38.359375 14.996094 -38.492188 C 15.53125 -38.558594 15.800781 -38.828125 16.335938 -39.699219 C 16.734375 -40.234375 17.40625 -40.902344 17.808594 -41.171875 L 18.476562 -41.640625 L 17.539062 -39.832031 C 16.667969 -38.160156 14.863281 -34.007812 13.859375 -31.195312 C 13.589844 -30.394531 13.253906 -29.589844 13.1875 -29.390625 C 12.785156 -28.71875 12.453125 -26.644531 12.453125 -25.507812 C 12.453125 -24.035156 12.921875 -22.761719 13.65625 -22.160156 C 13.925781 -21.890625 14.191406 -21.554688 14.191406 -21.421875 C 14.257812 -20.886719 15.332031 -19.949219 16.132812 -19.613281 C 17.941406 -18.8125 19.816406 -18.945312 22.558594 -20.152344 C 25.371094 -21.355469 30.058594 -24.769531 30.058594 -25.574219 C 30.058594 -25.707031 30.191406 -25.839844 30.257812 -25.773438 C 30.460938 -25.640625 33.671875 -28.71875 33.671875 -29.054688 C 33.671875 -29.121094 34.542969 -30.191406 35.613281 -31.332031 C 36.6875 -32.46875 37.488281 -33.539062 37.488281 -33.605469 C 37.488281 -33.742188 37.625 -33.808594 37.691406 -33.808594 C 37.757812 -33.808594 37.957031 -34.074219 37.957031 -34.410156 C 38.023438 -34.746094 38.359375 -35.28125 38.695312 -35.546875 C 39.296875 -36.082031 39.363281 -36.285156 38.894531 -36.285156 Z M -0.132812 -33.472656 C 0 -33.472656 0.0664062 -33.605469 0.0664062 -33.742188 C 0.0664062 -33.941406 0.132812 -34.007812 0.269531 -33.941406 C 0.402344 -33.875 0.335938 -33.671875 0.199219 -33.472656 C -0.0664062 -33.070312 -0.269531 -32.9375 -0.269531 -33.273438 C -0.269531 -33.339844 -0.199219 -33.472656 -0.132812 -33.472656 Z M 8.503906 -34.277344 C 8.300781 -34.542969 8.300781 -34.609375 8.503906 -34.746094 C 8.703125 -34.945312 8.769531 -34.878906 8.835938 -34.609375 C 8.96875 -34.140625 8.769531 -33.941406 8.503906 -34.277344 Z M 11.917969 -38.960938 C 11.714844 -38.695312 11.582031 -38.359375 11.582031 -38.226562 C 11.648438 -38.089844 11.515625 -38.023438 11.3125 -38.023438 C 11.046875 -38.023438 10.175781 -37.15625 8.703125 -35.546875 C 7.429688 -34.207031 6.425781 -33.070312 6.359375 -33.070312 C 6.226562 -33.070312 8.167969 -35.214844 10.109375 -37.222656 C 11.3125 -38.425781 12.117188 -39.230469 11.917969 -38.960938 Z M 14.328125 -44.316406 C 13.589844 -42.644531 13.390625 -42.375 11.582031 -40.5 C 9.90625 -38.828125 9.707031 -38.558594 9.976562 -38.292969 C 10.175781 -38.023438 10.175781 -37.957031 9.707031 -38.023438 C 9.238281 -38.089844 8.96875 -37.824219 7.296875 -36.015625 C 6.160156 -34.746094 5.488281 -33.875 5.554688 -33.742188 C 5.691406 -33.605469 5.691406 -33.339844 5.554688 -33.136719 C 5.488281 -32.9375 5.421875 -32.871094 5.421875 -33.003906 C 5.355469 -33.808594 4.550781 -32.9375 1.003906 -28.652344 C -0.871094 -26.441406 -1.273438 -26.042969 -1.273438 -26.375 C -1.273438 -26.777344 1.941406 -32.265625 2.609375 -33.003906 C 2.746094 -33.203125 3.683594 -34.410156 4.6875 -35.75 C 5.625 -37.019531 6.960938 -38.695312 7.699219 -39.429688 C 9.976562 -41.90625 10.710938 -42.777344 10.710938 -43.179688 C 10.710938 -43.3125 10.777344 -43.582031 10.910156 -43.648438 C 11.113281 -43.714844 11.113281 -43.648438 11.046875 -43.449219 C 10.84375 -43.046875 11.179688 -43.046875 11.582031 -43.515625 C 12.050781 -44.050781 14.929688 -46.394531 15.0625 -46.324219 C 15.0625 -46.257812 14.726562 -45.390625 14.328125 -44.316406 Z M 14.328125 -44.316406 "/></g></g></g></svg>