<?xml version="1.0" standalone="no"?>
<!DOCTYPE svg PUBLIC "-//W3C//DTD SVG 20010904//EN"
 "http://www.w3.org/TR/2001/REC-SVG-20010904/DTD/svg10.dtd">
<svg version="1.0" xmlns="http://www.w3.org/2000/svg"
 width="200.000000pt" height="217.000000pt" viewBox="0 0 200.000000 217.000000"
 preserveAspectRatio="xMidYMid meet">

<g transform="translate(0.000000,217.000000) scale(0.100000,-0.100000)"
fill="#000000" stroke="none">
<path d="M1547 1915 l-97 -195 200 0 200 0 -97 195 c-54 107 -100 195 -103
195 -3 0 -49 -88 -103 -195z"/>
<path d="M140 995 l0 -925 205 0 205 0 0 575 c0 316 3 575 8 575 4 0 205 -259
447 -575 l440 -574 208 -1 207 0 0 775 0 775 -205 0 -205 0 0 -441 c0 -260 -4
-439 -9 -437 -5 2 -212 267 -461 591 l-451 587 -195 0 -194 0 0 -925z"/>
</g>
</svg>
